#!OML:ASF H:\Not Pregnant\Project 1\Capture day 1\Session 1\non-pregnant.ASF
:FULLY-SPECIFIED
:DEGREES
1797
root -8.98004 15.8173 46.9338 712.184 -99.1448 -696.351
lowerback -11.2646 1.05155 3.03314
upperback -8.32202 0.678111 1.05444
thorax -2.35653 0.036023 -0.537302
lowerneck 16.5261 -8.42152 -29.9754
upperneck -1.27767 -18.453 36.7702
head 3.63664 -11.1656 18.0804
rclavicle -1.61823e-015 2.38542e-015
rhumerus -43.0851 -12.2388 -76.6457
rradius 24.0634
rwrist 28.8436
rhand -5.68196 4.61734
rfingers 7.12502
rthumb 20.1381 -24.3589
lclavicle -1.61823e-015 2.38542e-015
lhumerus -44.7867 -3.98735 88.1425
lradius 41.5784
lwrist 40.613
lhand -15.0384 -13.5124
lfingers 7.12502
lthumb 11.1277 16.1726
rfemur -26.037 -11.7498 23.9474
rtibia 28.3701
rfoot -19.4466 29.1033
rtoes 0.283526
lfemur -22.7852 10.9131 -19.0554
ltibia 28.4093
lfoot -21.5038 -6.47464
ltoes -15.0491
1798
root -8.98454 15.8165 46.9455 712.36 -99.2774 -696.538
lowerback -11.2851 1.03686 3.05412
upperback -8.3356 0.65381 1.057
thorax -2.36048 0.0217299 -0.548371
lowerneck 16.5368 -8.40544 -29.9693
upperneck -1.2444 -18.4508 36.7904
head 3.64452 -11.1693 18.0933
rclavicle 1.26197e-014 -8.92046e-015
rhumerus -43.1071 -12.0485 -76.8732
rradius 24.2011
rwrist 28.5723
rhand -5.63435 4.59915
rfingers 7.12502
rthumb 20.1838 -24.3723
lclavicle 1.26197e-014 -8.92046e-015
lhumerus -44.9944 -3.96485 88.2649
lradius 41.0116
lwrist 40.3764
lhand -14.7673 -13.4456
lfingers 7.12502
lthumb 11.3892 16.2251
rfemur -26.0412 -11.8041 23.9316
rtibia 28.3753
rfoot -19.424 29.3052
rtoes 0.370419
lfemur -22.7373 10.8701 -19.0764
ltibia 28.4179
lfoot -21.5078 -6.28496
ltoes -15.0697
1799
root -8.98974 15.815 46.9573 712.591 -99.4014 -696.808
lowerback -11.291 1.01887 3.06895
upperback -8.33715 0.627325 1.05197
thorax -2.3596 0.00718695 -0.564238
lowerneck 16.5458 -8.39494 -29.9496
upperneck -1.21704 -18.4514 36.8063
head 3.65004 -11.1737 18.1001
rclavicle 1.94887e-014 -1.43373e-014
rhumerus -43.1064 -11.8749 -77.0959
rradius 24.3207
rwrist 28.299
rhand -5.60072 4.58202
rfingers 7.12502
rthumb 20.2161 -24.386
lclavicle 1.94887e-014 -1.43373e-014
lhumerus -45.1875 -3.92108 88.3609
lradius 40.3821
lwrist 40.0115
lhand -14.4397 -13.4136
lfingers 7.12502
lthumb 11.7051 16.2394
rfemur -26.01 -11.8265 23.8799
rtibia 28.3822
rfoot -19.429 29.453
rtoes 0.370277
lfemur -22.6515 10.7622 -19.1065
ltibia 28.4236
lfoot -21.5093 -6.02703
ltoes -15.1418
1800
root -8.99508 15.8134 46.9685 712.861 -99.5172 -697.128
lowerback -11.2942 0.992755 3.06573
upperback -8.33318 0.592152 1.04692
thorax -2.35474 -0.0105915 -0.570856
lowerneck 16.5532 -8.38278 -29.9283
upperneck -1.19304 -18.4476 36.8223
head 3.65312 -11.1758 18.1074
rclavicle -2.10122e-015 -6.82701e-015
rhumerus -43.0984 -11.7182 -77.3076
rradius 24.4438
rwrist 28.038
rhand -5.55185 4.57629
rfingers 7.12502
rthumb 20.2631 -24.3867
lclavicle -2.10122e-015 -6.82701e-015
lhumerus -45.3718 -3.84354 88.4395
lradius 39.7257
lwrist 39.5902
lhand -14.1189 -13.3467
lfingers 7.12502
lthumb 12.0145 16.2885
rfemur -25.961 -11.8037 23.8049
rtibia 28.3884
rfoot -19.4491 29.5398
rtoes 0.302696
lfemur -22.5545 10.6604 -19.1473
ltibia 28.4282
lfoot -21.5145 -5.78327
ltoes -15.2243
1801
root -8.99989 15.812 46.9786 713.048 -99.6377 -697.364
lowerback -11.295 0.964624 3.05832
upperback -8.32672 0.55489 1.05316
thorax -2.34869 -0.0288524 -0.563605
lowerneck 16.5631 -8.3698 -29.9149
upperneck -1.17745 -18.442 36.8383
head 3.65366 -11.177 18.1165
rclavicle -5.64517e-015 2.67614e-014
rhumerus -43.082 -11.6013 -77.4891
rradius 24.5679
rwrist 27.8122
rhand -5.51581 4.57172
rfingers 7.12502
rthumb 20.2978 -24.3876
lclavicle -5.64517e-015 2.67614e-014
lhumerus -45.5577 -3.77398 88.5506
lradius 39.1094
lwrist 39.3156
lhand -13.9554 -13.151
lfingers 7.12502
lthumb 12.1721 16.4749
rfemur -25.8998 -11.6932 23.7336
rtibia 28.3895
rfoot -19.4851 29.5243
rtoes 0.138652
lfemur -22.4579 10.5677 -19.169
ltibia 28.4335
lfoot -21.5191 -5.54676
ltoes -15.3083
1802
root -9.00388 15.8111 46.9873 713.188 -99.76 -697.541
lowerback -11.3046 0.933027 3.03659
upperback -8.32217 0.513551 1.07188
thorax -2.34026 -0.0484015 -0.535698
lowerneck 16.5752 -8.35614 -29.9115
upperneck -1.16945 -18.4351 36.8531
head 3.65227 -11.1774 18.1273
rclavicle 1.09254e-014 -1.96983e-014
rhumerus -43.0543 -11.5227 -77.637
rradius 24.6859
rwrist 27.6289
rhand -5.48318 4.58819
rfingers 7.12502
rthumb 20.3291 -24.3678
lclavicle 1.09254e-014 -1.96983e-014
lhumerus -45.7426 -3.70773 88.6879
lradius 38.5312
lwrist 39.1501
lhand -13.9232 -12.8143
lfingers 7.12502
lthumb 12.2032 16.8097
rfemur -25.8426 -11.5133 23.6713
rtibia 28.3805
rfoot -19.5316 29.428
rtoes -0.111534
lfemur -22.3822 10.5244 -19.1824
ltibia 28.4406
lfoot -21.527 -5.36242
ltoes -15.3752
1803
root -9.0068 15.8107 46.9944 713.275 -99.8846 -697.643
lowerback -11.3241 0.901562 3.00262
upperback -8.32622 0.472287 1.10021
thorax -2.33562 -0.0676919 -0.49087
lowerneck 16.5976 -8.33959 -29.9214
upperneck -1.16866 -18.4281 36.8732
head 3.64932 -11.179 18.1446
rclavicle 2.26583e-015 2.18042e-015
rhumerus -43.022 -11.4483 -77.7773
rradius 24.8059
rwrist 27.4401
rhand -5.47523 4.59788
rfingers 7.12502
rthumb 20.3368 -24.3573
lclavicle 2.26583e-015 2.18042e-015
lhumerus -45.9382 -3.67839 88.8695
lradius 38.0041
lwrist 39.1664
lhand -14.0645 -12.3712
lfingers 7.12502
lthumb 12.0669 17.2609
rfemur -25.7972 -11.2546 23.624
rtibia 28.3576
rfoot -19.5792 29.2445
rtoes -0.43088
lfemur -22.3394 10.546 -19.1855
ltibia 28.4507
lfoot -21.5407 -5.24239
ltoes -15.4507
1804
root -9.00888 15.8111 47.0003 713.346 -100.009 -697.706
lowerback -11.356 0.870683 2.95186
upperback -8.33778 0.432039 1.13657
thorax -2.33224 -0.0860183 -0.428133
lowerneck 16.6286 -8.32501 -29.9387
upperneck -1.17701 -18.425 36.8927
head 3.64464 -11.183 18.1629
rclavicle -1.71824e-014 5.77097e-015
rhumerus -42.9904 -11.3998 -77.8939
rradius 24.9334
rwrist 27.2775
rhand -5.48029 4.61056
rfingers 7.12502
rthumb 20.3319 -24.3452
lclavicle -1.71824e-014 5.77097e-015
lhumerus -46.1303 -3.65205 89.0605
lradius 37.4604
lwrist 39.1769
lhand -14.2057 -11.9579
lfingers 7.12502
lthumb 11.9307 17.6822
rfemur -25.7655 -10.9259 23.5827
rtibia 28.3235
rfoot -19.6255 28.9816
rtoes -0.806627
lfemur -22.3273 10.6237 -19.1862
ltibia 28.4605
lfoot -21.5549 -5.1878
ltoes -15.4848
1805
root -9.01054 15.8119 47.0056 713.429 -100.132 -697.771
lowerback -11.3937 0.841591 2.89012
upperback -8.35242 0.394631 1.17345
thorax -2.32885 -0.1026 -0.35842
lowerneck 16.6658 -8.31323 -29.9556
upperneck -1.19537 -18.4251 36.9142
head 3.63766 -11.1893 18.1818
rclavicle 2.70068e-015 -4.30493e-015
rhumerus -42.9563 -11.4014 -77.9784
rradius 25.0559
rwrist 27.1669
rhand -5.49786 4.62503
rfingers 7.12502
rthumb 20.315 -24.3325
lclavicle 2.70068e-015 -4.30493e-015
lhumerus -46.312 -3.61826 89.2409
lradius 36.8792
lwrist 39.116
lhand -14.2869 -11.6181
lfingers 7.12502
lthumb 11.8525 18.0265
rfemur -25.7381 -10.5276 23.5335
rtibia 28.2839
rfoot -19.6791 28.636
rtoes -1.25542
lfemur -22.3286 10.7198 -19.1889
ltibia 28.4676
lfoot -21.5659 -5.15714
ltoes -15.5167
1806
root -9.0119 15.813 47.0105 713.544 -100.253 -697.858
lowerback -11.4357 0.817673 2.82046
upperback -8.37089 0.364395 1.20456
thorax -2.32687 -0.115557 -0.289586
lowerneck 16.7137 -8.3047 -29.9664
upperneck -1.22465 -18.4298 36.9405
head 3.62759 -11.1991 18.202
rclavicle -2.43208e-014 -3.91979e-015
rhumerus -42.9281 -11.4303 -78.0503
rradius 25.185
rwrist 27.0761
rhand -5.53225 4.64291
rfingers 7.12502
rthumb 20.2819 -24.3181
lclavicle -2.43208e-014 -3.91979e-015
lhumerus -46.4767 -3.56182 89.3818
lradius 36.2569
lwrist 38.8821
lhand -14.2366 -11.2909
lfingers 7.12502
lthumb 11.901 18.3509
rfemur -25.7191 -10.0793 23.4737
rtibia 28.245
rfoot -19.7389 28.232
rtoes -1.75832
lfemur -22.3405 10.821 -19.1975
ltibia 28.47
lfoot -21.57 -5.1407
ltoes -15.5182
1807
root -9.01373 15.8135 47.0164 713.73 -100.374 -698.041
lowerback -11.4605 0.801653 2.75384
upperback -8.3803 0.346119 1.21945
thorax -2.3241 -0.122405 -0.238343
lowerneck 16.7686 -8.30423 -29.9559
upperneck -1.26826 -18.4398 36.9648
head 3.61174 -11.2119 18.2158
rclavicle -1.65275e-014 -1.20544e-014
rhumerus -42.8904 -11.4747 -78.1224
rradius 25.3075
rwrist 26.9854
rhand -5.57336 4.67463
rfingers 7.12502
rthumb 20.2424 -24.2906
lclavicle -1.65275e-014 -1.20544e-014
lhumerus -46.6231 -3.49534 89.4848
lradius 35.6016
lwrist 38.4985
lhand -14.0622 -10.9934
lfingers 7.12502
lthumb 12.0692 18.6385
rfemur -25.6785 -9.62538 23.3822
rtibia 28.2097
rfoot -19.7973 27.8243
rtoes -2.26037
lfemur -22.3197 10.8382 -19.2172
ltibia 28.4712
lfoot -21.5632 -5.0301
ltoes -15.5544
1808
root -9.01551 15.8137 47.0234 713.965 -100.493 -698.282
lowerback -11.4704 0.792614 2.69849
upperback -8.38773 0.337272 1.21784
thorax -2.32694 -0.125188 -0.209746
lowerneck 16.8266 -8.30952 -29.9245
upperneck -1.32011 -18.4528 36.989
head 3.59188 -11.2266 18.2248
rclavicle 6.735e-015 1.99561e-015
rhumerus -42.8528 -11.5225 -78.2012
rradius 25.4348
rwrist 26.8976
rhand -5.61416 4.71273
rfingers 7.12502
rthumb 20.2032 -24.2566
lclavicle 6.735e-015 1.99561e-015
lhumerus -46.7588 -3.42194 89.5552
lradius 34.9377
lwrist 38.0092
lhand -13.8116 -10.699
lfingers 7.12502
lthumb 12.3108 18.9186
rfemur -25.6384 -9.21809 23.2798
rtibia 28.1788
rfoot -19.8498 27.469
rtoes -2.72653
lfemur -22.2864 10.7794 -19.2451
ltibia 28.4748
lfoot -21.5445 -4.84073
ltoes -15.6137
1809
root -9.01656 15.8138 47.0315 714.144 -100.615 -698.465
lowerback -11.4653 0.794656 2.67416
upperback -8.39709 0.341223 1.20552
thorax -2.33947 -0.123183 -0.208498
lowerneck 16.8895 -8.3212 -29.8805
upperneck -1.37892 -18.4724 37.0139
head 3.5705 -11.245 18.2305
rclavicle -2.24875e-015 7.97623e-015
rhumerus -42.8105 -11.5793 -78.284
rradius 25.5581
rwrist 26.8238
rhand -5.66074 4.7516
rfingers 7.12502
rthumb 20.1585 -24.2225
lclavicle -2.24875e-015 7.97623e-015
lhumerus -46.8928 -3.37001 89.621
lradius 34.2973
lwrist 37.5048
lhand -13.5534 -10.395
lfingers 7.12502
lthumb 12.5597 19.2074
rfemur -25.6101 -8.85487 23.1943
rtibia 28.1518
rfoot -19.8898 27.1645
rtoes -3.14128
lfemur -22.2574 10.6576 -19.2594
ltibia 28.4849
lfoot -21.5135 -4.57927
ltoes -15.7372
1810
root -9.01678 15.8137 47.0403 714.279 -100.737 -698.603
lowerback -11.4479 0.801696 2.66834
upperback -8.4087 0.350767 1.19049
thorax -2.36088 -0.119328 -0.219941
lowerneck 16.9473 -8.33978 -29.8314
upperneck -1.43763 -18.499 37.0348
head 3.55168 -11.2661 18.2309
rclavicle 1.30685e-014 9.82742e-015
rhumerus -42.7551 -11.6209 -78.3742
rradius 25.6725
rwrist 26.7609
rhand -5.68522 4.79774
rfingers 7.12502
rthumb 20.1349 -24.1788
lclavicle 1.30685e-014 9.82742e-015
lhumerus -47.0261 -3.3185 89.6816
lradius 33.6872
lwrist 36.98
lhand -13.2922 -10.0843
lfingers 7.12502
lthumb 12.8115 19.5025
rfemur -25.596 -8.53741 23.1259
rtibia 28.1279
rfoot -19.9195 26.9135
rtoes -3.50714
lfemur -22.237 10.4916 -19.2636
ltibia 28.502
lfoot -21.4736 -4.2645
ltoes -15.9151
